<svg xmlns="http://www.w3.org/2000/svg" enable-background="new 0 0 24 24" viewBox="0 0 24 24" id="github-alt"><path fill="#212121" d="m7.47 18.323c1.29 0 1.835-1.692 1.835-2.727s-.546-2.726-1.835-2.726-1.835 1.692-1.835 2.727.545 2.726 1.835 2.726z"></path><path fill="#212121" d="m12.29 21.5c3.73 0 8.94.09 10.836-3.701.714-1.45.874-3.123.874-4.701h-.001c0-2.073-.575-4.047-1.95-5.65.255-.766.385-1.573.385-2.385 0-1.064-.24-1.598-.729-2.563-2.24 0-3.69.42-5.39 1.742-1.31-.312-2.669-.455-4.02-.455-1.496 0-2.986.154-4.435.495-1.726-1.337-3.176-1.782-5.441-1.782-.484.965-.73 1.499-.73 2.563 0 .811.125 1.632.385 2.414-1.379 1.589-2.074 3.548-2.074 5.621 0 1.578.281 3.266 1.01 4.7 1.97 3.835 7.491 3.702 11.28 3.702zm-5.289-9.991c.95 0 1.865.168 2.8.297.75.114 1.496.158 2.255.158.765 0 1.51-.045 2.255-.158.95-.129 1.855-.297 2.8-.297 2.339 0 3.675 1.915 3.675 4.087 0 4.349-4.015 5.012-7.53 5.012h-2.41c-3.5 0-7.52-.667-7.52-5.012 0-2.172 1.334-4.087 3.675-4.087z"></path><path fill="#3e3e3e" d="m21.705 2.5c-2.24 0-3.69.42-5.39 1.742-1.31-.312-2.669-.455-4.02-.455-.098 0-.196.001-.294.002v8.176h.056c.765 0 1.51-.045 2.255-.158.95-.129 1.855-.297 2.8-.297 2.339 0 3.675 1.915 3.675 4.087 0 4.349-4.015 5.012-7.53 5.012h-1.257v.891h.29.515c3.68 0 8.511-.082 10.321-3.701.714-1.45.874-3.123.874-4.701h-.001c0-2.073-.575-4.047-1.95-5.65.255-.766.385-1.573.385-2.385 0-1.064-.24-1.598-.729-2.563z"></path><path fill="#212121" d="m16.655 18.323c1.289 0 1.835-1.692 1.835-2.727s-.545-2.727-1.835-2.727-1.834 1.692-1.834 2.727c-.001 1.035.544 2.727 1.834 2.727z"></path><g fill="#3e3e3e"><path d="M16.655 12.87v5.453c1.289 0 1.835-1.692 1.835-2.727 0-1.034-.546-2.726-1.835-2.726zM7.47 12.87v5.453c1.289 0 1.835-1.692 1.835-2.727 0-1.034-.546-2.726-1.835-2.726z"></path></g></svg>