<svg xmlns="http://www.w3.org/2000/svg" width="48" height="48" fill="none" id="twitch"><path fill="#F1F1F1" d="M24 48c13.255 0 24-10.745 24-24S37.255 0 24 0 0 10.745 0 24s10.745 24 24 24Z"></path><path fill="#6441A5" fill-rule="evenodd" d="M10.453 16.209 12.33 11.2h25.664v17.532l-7.512 7.51h-5.634L21.095 40h-3.758v-3.758h-6.884V16.209Zm25.039-2.506H14.834V31.86h5.637v3.754l3.753-3.754h6.885l4.383-4.383V13.703Z" clip-rule="evenodd"></path><path fill="#6441A5" fill-rule="evenodd" d="M24.224 26.227H21.72v-7.513h2.504v7.513Zm6.885 0h-2.504v-7.513h2.504v7.513Z" clip-rule="evenodd"></path></svg>